<svg width="22" height="20" viewBox="0 0 22 20" fill="none" xmlns="http://www.w3.org/2000/svg">
<path d="M8.2147 8.12578H21.0718C21.1897 8.12578 21.2861 8.02935 21.2861 7.91149V6.41149C21.2861 6.29363 21.1897 6.19721 21.0718 6.19721H8.2147C8.09685 6.19721 8.00042 6.29363 8.00042 6.41149V7.91149C8.00042 8.02935 8.09685 8.12578 8.2147 8.12578ZM8.00042 13.5901C8.00042 13.7079 8.09685 13.8043 8.2147 13.8043H21.0718C21.1897 13.8043 21.2861 13.7079 21.2861 13.5901V12.0901C21.2861 11.9722 21.1897 11.8758 21.0718 11.8758H8.2147C8.09685 11.8758 8.00042 11.9722 8.00042 12.0901V13.5901ZM21.5004 0.572205H0.500419C0.382561 0.572205 0.286133 0.668633 0.286133 0.78649V2.28649C0.286133 2.40435 0.382561 2.50078 0.500419 2.50078H21.5004C21.6183 2.50078 21.7147 2.40435 21.7147 2.28649V0.78649C21.7147 0.668633 21.6183 0.572205 21.5004 0.572205ZM21.5004 17.5008H0.500419C0.382561 17.5008 0.286133 17.5972 0.286133 17.7151V19.2151C0.286133 19.3329 0.382561 19.4293 0.500419 19.4293H21.5004C21.6183 19.4293 21.7147 19.3329 21.7147 19.2151V17.7151C21.7147 17.5972 21.6183 17.5008 21.5004 17.5008ZM0.377204 10.1856L4.56381 13.4829C4.71917 13.6061 4.94953 13.4963 4.94953 13.2981V6.70346C4.94953 6.50524 4.72185 6.39542 4.56381 6.51863L0.377204 9.81596C0.349053 9.83784 0.326273 9.86587 0.310604 9.8979C0.294934 9.92993 0.286788 9.96512 0.286788 10.0008C0.286788 10.0364 0.294934 10.0716 0.310604 10.1037C0.326273 10.1357 0.349053 10.1637 0.377204 10.1856Z" fill="black" fill-opacity="0.85"/>
</svg>
