<svg width="22" height="22" viewBox="0 0 22 22" fill="none" xmlns="http://www.w3.org/2000/svg">
<path d="M19.25 12.8333C19.0069 12.8333 18.7738 12.9298 18.6019 13.1017C18.4299 13.2736 18.3334 13.5068 18.3334 13.7499V17.4166C18.3334 17.6597 18.2368 17.8929 18.0649 18.0648C17.893 18.2367 17.6598 18.3333 17.4167 18.3333H4.58337C4.34026 18.3333 4.1071 18.2367 3.93519 18.0648C3.76328 17.8929 3.66671 17.6597 3.66671 17.4166V13.7499C3.66671 13.5068 3.57013 13.2736 3.39822 13.1017C3.22631 12.9298 2.99316 12.8333 2.75004 12.8333C2.50693 12.8333 2.27377 12.9298 2.10186 13.1017C1.92995 13.2736 1.83337 13.5068 1.83337 13.7499V17.4166C1.83337 18.1459 2.12311 18.8454 2.63883 19.3611C3.15456 19.8769 3.85403 20.1666 4.58337 20.1666H17.4167C18.1461 20.1666 18.8455 19.8769 19.3612 19.3611C19.877 18.8454 20.1667 18.1459 20.1667 17.4166V13.7499C20.1667 13.5068 20.0701 13.2736 19.8982 13.1017C19.7263 12.9298 19.4932 12.8333 19.25 12.8333ZM10.3492 14.4008C10.4364 14.4842 10.5392 14.5496 10.6517 14.5933C10.7614 14.6417 10.8801 14.6668 11 14.6668C11.12 14.6668 11.2386 14.6417 11.3484 14.5933C11.4609 14.5496 11.5637 14.4842 11.6509 14.4008L15.3175 10.7341C15.4902 10.5615 15.5871 10.3274 15.5871 10.0833C15.5871 9.83914 15.4902 9.60503 15.3175 9.43242C15.1449 9.25981 14.9108 9.16283 14.6667 9.16283C14.4226 9.16283 14.1885 9.25981 14.0159 9.43242L11.9167 11.5408V2.74992C11.9167 2.5068 11.8201 2.27365 11.6482 2.10174C11.4763 1.92983 11.2432 1.83325 11 1.83325C10.7569 1.83325 10.5238 1.92983 10.3519 2.10174C10.18 2.27365 10.0834 2.5068 10.0834 2.74992V11.5408L7.98421 9.43242C7.89874 9.34695 7.79727 9.27915 7.6856 9.2329C7.57393 9.18664 7.45424 9.16283 7.33337 9.16283C7.2125 9.16283 7.09282 9.18664 6.98115 9.2329C6.86948 9.27915 6.76801 9.34695 6.68254 9.43242C6.59707 9.51789 6.52927 9.61935 6.48302 9.73102C6.43676 9.84269 6.41296 9.96238 6.41296 10.0833C6.41296 10.2041 6.43676 10.3238 6.48302 10.4355C6.52927 10.5472 6.59707 10.6486 6.68254 10.7341L10.3492 14.4008Z" fill="#1890FF"/>
</svg>
