<svg width="14" height="14" viewBox="0 0 14 14" fill="none" xmlns="http://www.w3.org/2000/svg">
<path d="M6.46394 9.32483C6.47563 9.33977 6.49057 9.35185 6.50763 9.36016C6.52468 9.36847 6.54341 9.37279 6.56238 9.37279C6.58135 9.37279 6.60007 9.36847 6.61713 9.36016C6.63418 9.35185 6.64912 9.33977 6.66082 9.32483L8.41082 7.11077C8.47488 7.02952 8.41707 6.9092 8.31238 6.9092H7.15457V1.6217C7.15457 1.55295 7.09832 1.4967 7.02957 1.4967H6.09207C6.02332 1.4967 5.96707 1.55295 5.96707 1.6217V6.90764H4.81238C4.70769 6.90764 4.64988 7.02796 4.71394 7.1092L6.46394 9.32483ZM12.2811 8.77796H11.3436C11.2749 8.77796 11.2186 8.83421 11.2186 8.90296V11.3092H1.90613V8.90296C1.90613 8.83421 1.84988 8.77796 1.78113 8.77796H0.843628C0.774878 8.77796 0.718628 8.83421 0.718628 8.90296V11.9967C0.718628 12.2733 0.942065 12.4967 1.21863 12.4967H11.9061C12.1827 12.4967 12.4061 12.2733 12.4061 11.9967V8.90296C12.4061 8.83421 12.3499 8.77796 12.2811 8.77796Z" fill="#F57024"/>
</svg>
