<svg width="14" height="14" viewBox="0 0 14 14" fill="none" xmlns="http://www.w3.org/2000/svg">
<path d="M12.6642 2.75333L11.2467 1.33583C11.1374 1.22718 10.9895 1.1662 10.8354 1.1662C10.6813 1.1662 10.5335 1.22718 10.4242 1.33583L7.16917 4.59083C7.1151 4.64533 7.07233 4.70998 7.0433 4.78105C7.01427 4.85212 6.99956 4.92822 7 5.00499V6.41666C7 6.57137 7.06146 6.71974 7.17085 6.82914C7.28025 6.93854 7.42862 6.99999 7.58333 6.99999H8.995C9.07177 7.00044 9.14787 6.98572 9.21895 6.95669C9.29002 6.92767 9.35466 6.88489 9.40917 6.83083L12.6642 3.57583C12.7728 3.46653 12.8338 3.31869 12.8338 3.16458C12.8338 3.01047 12.7728 2.86262 12.6642 2.75333ZM8.75 5.83333H8.16667V5.24999L10.8383 2.57833L11.4217 3.16166L8.75 5.83333ZM11.0833 6.99999C10.9286 6.99999 10.7803 7.06145 10.6709 7.17085C10.5615 7.28025 10.5 7.42862 10.5 7.58333C10.5 8.6663 10.0698 9.70491 9.30402 10.4707C8.53825 11.2365 7.49963 11.6667 6.41667 11.6667H3.15583L3.52917 11.2992C3.58384 11.2449 3.62724 11.1804 3.65685 11.1093C3.68647 11.0382 3.70172 10.962 3.70172 10.885C3.70172 10.808 3.68647 10.7317 3.65685 10.6607C3.62724 10.5896 3.58384 10.5251 3.52917 10.4708C2.95804 9.89976 2.5691 9.17216 2.41151 8.38003C2.25393 7.5879 2.3348 6.76683 2.64388 6.02066C2.95296 5.2745 3.47638 4.63675 4.14793 4.18807C4.81949 3.73939 5.60902 3.49994 6.41667 3.49999C6.57138 3.49999 6.71975 3.43854 6.82915 3.32914C6.93854 3.21974 7 3.07137 7 2.91666C7 2.76195 6.93854 2.61358 6.82915 2.50418C6.71975 2.39479 6.57138 2.33333 6.41667 2.33333C5.42936 2.33657 4.46297 2.61816 3.62844 3.14576C2.79392 3.67336 2.12508 4.42559 1.69871 5.3161C1.27234 6.2066 1.10571 7.19929 1.21797 8.18021C1.33022 9.16112 1.7168 10.0905 2.33333 10.8617L1.33583 11.8358C1.25489 11.9179 1.20006 12.022 1.17826 12.1352C1.15646 12.2483 1.16866 12.3654 1.21333 12.4717C1.2571 12.5782 1.33141 12.6694 1.42691 12.7337C1.52242 12.7981 1.63484 12.8328 1.75 12.8333H6.41667C7.10611 12.8333 7.7888 12.6975 8.42576 12.4337C9.06271 12.1699 9.64147 11.7831 10.129 11.2956C10.6165 10.8081 11.0032 10.2294 11.267 9.59242C11.5309 8.95546 11.6667 8.27277 11.6667 7.58333C11.6667 7.42862 11.6052 7.28025 11.4958 7.17085C11.3864 7.06145 11.238 6.99999 11.0833 6.99999Z" fill="#F4600C"/>
</svg>
