<svg width="22" height="22" viewBox="0 0 22 22" fill="none" xmlns="http://www.w3.org/2000/svg">
<line x1="8.43269" y1="7.67449" x2="13.5674" y2="7.67449" stroke="#F4600C" stroke-width="1.6" stroke-linecap="round"/>
<line x1="10.1163" y1="11.0419" x2="13.5673" y2="11.0419" stroke="#F4600C" stroke-width="1.6" stroke-linecap="round"/>
<path fill-rule="evenodd" clip-rule="evenodd" d="M4.39283 4.39283C4.58228 4.20338 4.83923 4.09695 5.10716 4.09695H16.8929C17.1609 4.09695 17.4178 4.20338 17.6073 4.39283C17.7967 4.58228 17.9031 4.83923 17.9031 5.10716V10.3266C17.9031 10.6985 18.2047 11 18.5766 11V11C18.9486 11 19.2501 10.6985 19.2501 10.3266V5.10716C19.2501 4.482 19.0017 3.88245 18.5597 3.44039C18.1176 2.99834 17.5181 2.75 16.8929 2.75H5.10716C4.482 2.75 3.88245 2.99834 3.44039 3.44039C2.99834 3.88245 2.75 4.482 2.75 5.10716V18.5766C2.75 18.849 2.91409 19.0946 3.16575 19.1988C3.41741 19.3031 3.70708 19.2454 3.89969 19.0528L7.0698 15.8827H16.8929C17.5181 15.8827 18.1176 15.6344 18.5597 15.1923C19.0017 14.7503 19.2501 14.1507 19.2501 13.5256V13.3572C19.2501 12.9853 18.9486 12.6837 18.5766 12.6837V12.6837C18.2047 12.6837 17.9031 12.9853 17.9031 13.3572V13.5256C17.9031 13.7935 17.7967 14.0504 17.6073 14.2399C17.4178 14.4293 17.1609 14.5358 16.8929 14.5358H6.79084C6.61222 14.5358 6.44092 14.6067 6.31462 14.733L4.09695 16.9507V5.10716C4.09695 4.83923 4.20338 4.58228 4.39283 4.39283Z" fill="#F4600C"/>
</svg>
