<svg width="14" height="14" viewBox="0 0 14 14" fill="none" xmlns="http://www.w3.org/2000/svg">
<path d="M11.0833 8.16669C11.009 8.1474 10.9316 8.14298 10.8556 8.15366C10.7796 8.16434 10.7064 8.18993 10.6403 8.22895C10.5742 8.26797 10.5164 8.31965 10.4703 8.38104C10.4242 8.44243 10.3907 8.51232 10.3717 8.58669C10.1486 9.46667 9.63866 10.2472 8.92242 10.805C8.20617 11.3628 7.32448 11.666 6.41667 11.6667H3.15583L3.52917 11.2992C3.63781 11.1899 3.6988 11.0421 3.6988 10.8879C3.6988 10.7338 3.63781 10.586 3.52917 10.4767C2.95604 9.90593 2.56533 9.17782 2.40659 8.3847C2.24786 7.59157 2.32825 6.76918 2.63757 6.0218C2.94689 5.27443 3.4712 4.63577 4.14401 4.1868C4.81682 3.73784 5.60782 3.49881 6.41667 3.50002C6.57138 3.50002 6.71975 3.43857 6.82915 3.32917C6.93854 3.21977 7 3.0714 7 2.91669C7 2.76198 6.93854 2.61361 6.82915 2.50421C6.71975 2.39482 6.57138 2.33336 6.41667 2.33336C5.42936 2.3366 4.46297 2.61819 3.62844 3.14579C2.79392 3.67339 2.12508 4.42562 1.69871 5.31613C1.27234 6.20663 1.10571 7.19932 1.21797 8.18024C1.33022 9.16115 1.7168 10.0905 2.33333 10.8617L1.33583 11.8359C1.25489 11.9179 1.20006 12.0221 1.17826 12.1352C1.15646 12.2484 1.16866 12.3655 1.21333 12.4717C1.2571 12.5782 1.33141 12.6694 1.42691 12.7338C1.52242 12.7981 1.63484 12.8328 1.75 12.8334H6.41667C7.58115 12.8341 8.71283 12.4477 9.63366 11.7349C10.5545 11.0221 11.2122 10.0234 11.5033 8.89586C11.5253 8.82039 11.5318 8.74127 11.5224 8.66325C11.513 8.58522 11.4879 8.50989 11.4487 8.44179C11.4095 8.37369 11.3569 8.31422 11.2941 8.26694C11.2313 8.21967 11.1596 8.18557 11.0833 8.16669ZM12.6642 3.06836L10.9142 1.31836C10.8587 1.26525 10.7933 1.22362 10.7217 1.19586C10.5796 1.13751 10.4204 1.13751 10.2783 1.19586C10.2067 1.22362 10.1413 1.26525 10.0858 1.31836L8.33583 3.06836C8.22599 3.1782 8.16428 3.32718 8.16428 3.48252C8.16428 3.63787 8.22599 3.78685 8.33583 3.89669C8.44568 4.00653 8.59466 4.06824 8.75 4.06824C8.90534 4.06824 9.05432 4.00653 9.16417 3.89669L9.91667 3.15586V6.41669C9.91667 6.5714 9.97812 6.71977 10.0875 6.82917C10.1969 6.93857 10.3453 7.00002 10.5 7.00002C10.6547 7.00002 10.8031 6.93857 10.9125 6.82917C11.0219 6.71977 11.0833 6.5714 11.0833 6.41669V3.15586L11.8358 3.91419C11.8901 3.96887 11.9546 4.01226 12.0257 4.04188C12.0967 4.07149 12.173 4.08674 12.25 4.08674C12.327 4.08674 12.4033 4.07149 12.4743 4.04188C12.5454 4.01226 12.6099 3.96887 12.6642 3.91419C12.7188 3.85996 12.7622 3.79545 12.7919 3.72436C12.8215 3.65328 12.8367 3.57703 12.8367 3.50002C12.8367 3.42302 12.8215 3.34677 12.7919 3.27569C12.7622 3.2046 12.7188 3.14009 12.6642 3.08586V3.06836Z" fill="#F4600C"/>
</svg>
