<svg width="16" height="20" viewBox="0 0 16 20" fill="none" xmlns="http://www.w3.org/2000/svg">
<path d="M8 11C7.69555 10.9964 7.39732 11.0862 7.14544 11.2573C6.89357 11.4283 6.70015 11.6725 6.59121 11.9568C6.48228 12.2411 6.46306 12.552 6.53615 12.8475C6.60923 13.1431 6.77111 13.4092 7 13.61V15C7 15.2652 7.10536 15.5196 7.29289 15.7071C7.48043 15.8946 7.73478 16 8 16C8.26522 16 8.51957 15.8946 8.70711 15.7071C8.89464 15.5196 9 15.2652 9 15V13.61C9.22889 13.4092 9.39077 13.1431 9.46385 12.8475C9.53694 12.552 9.51772 12.2411 9.40879 11.9568C9.29985 11.6725 9.10643 11.4283 8.85456 11.2573C8.60268 11.0862 8.30445 10.9964 8 11V11ZM13 6.99998H5V4.99998C4.99854 4.40617 5.17334 3.82528 5.50226 3.33088C5.83118 2.83649 6.29942 2.45083 6.84768 2.22274C7.39594 1.99466 7.99956 1.93441 8.58209 2.04963C9.16462 2.16485 9.69985 2.45035 10.12 2.86998C10.4959 3.25405 10.7649 3.72981 10.9 4.24998C10.9328 4.37736 10.9904 4.49703 11.0695 4.60215C11.1486 4.70728 11.2476 4.79579 11.3609 4.86265C11.4742 4.92951 11.5995 4.9734 11.7298 4.99182C11.86 5.01023 11.9926 5.00281 12.12 4.96998C12.2474 4.93715 12.3671 4.87955 12.4722 4.80047C12.5773 4.72139 12.6658 4.62239 12.7327 4.5091C12.7995 4.39581 12.8434 4.27046 12.8618 4.14021C12.8802 4.00996 12.8728 3.87736 12.84 3.74998C12.6122 2.88478 12.1603 2.09492 11.53 1.45998C10.8302 0.762347 9.93934 0.287717 8.96996 0.096024C8.00058 -0.095669 6.99614 0.00417101 6.08346 0.382937C5.17078 0.761703 4.3908 1.40241 3.84201 2.22415C3.29321 3.0459 3.00021 4.01183 3 4.99998V6.99998C2.20435 6.99998 1.44129 7.31605 0.87868 7.87866C0.316071 8.44127 0 9.20433 0 9.99998V17C0 17.7956 0.316071 18.5587 0.87868 19.1213C1.44129 19.6839 2.20435 20 3 20H13C13.7956 20 14.5587 19.6839 15.1213 19.1213C15.6839 18.5587 16 17.7956 16 17V9.99998C16 9.20433 15.6839 8.44127 15.1213 7.87866C14.5587 7.31605 13.7956 6.99998 13 6.99998ZM14 17C14 17.2652 13.8946 17.5196 13.7071 17.7071C13.5196 17.8946 13.2652 18 13 18H3C2.73478 18 2.48043 17.8946 2.29289 17.7071C2.10536 17.5196 2 17.2652 2 17V9.99998C2 9.73476 2.10536 9.48041 2.29289 9.29287C2.48043 9.10534 2.73478 8.99998 3 8.99998H13C13.2652 8.99998 13.5196 9.10534 13.7071 9.29287C13.8946 9.48041 14 9.73476 14 9.99998V17Z" fill="#1890FF"/>
</svg>
