<svg width="14" height="14" viewBox="0 0 14 14" fill="none" xmlns="http://www.w3.org/2000/svg">
<path d="M8.16667 7.00002H4.66667C4.51196 7.00002 4.36358 7.06148 4.25419 7.17088C4.14479 7.28027 4.08333 7.42864 4.08333 7.58335C4.08333 7.73806 4.14479 7.88644 4.25419 7.99583C4.36358 8.10523 4.51196 8.16669 4.66667 8.16669H8.16667C8.32138 8.16669 8.46975 8.10523 8.57915 7.99583C8.68854 7.88644 8.75 7.73806 8.75 7.58335C8.75 7.42864 8.68854 7.28027 8.57915 7.17088C8.46975 7.06148 8.32138 7.00002 8.16667 7.00002ZM11.3225 11.0834L12.0808 10.3309C12.1907 10.221 12.2524 10.072 12.2524 9.91669C12.2524 9.76134 12.1907 9.61237 12.0808 9.50252C11.971 9.39268 11.822 9.33097 11.6667 9.33097C11.5113 9.33097 11.3623 9.39268 11.2525 9.50252L10.5 10.2609L9.7475 9.50252C9.63766 9.39268 9.48868 9.33097 9.33333 9.33097C9.17799 9.33097 9.02901 9.39268 8.91917 9.50252C8.80932 9.61237 8.74761 9.76134 8.74761 9.91669C8.74761 10.072 8.80932 10.221 8.91917 10.3309L9.6775 11.0834L8.91917 11.8359C8.86449 11.8901 8.8211 11.9546 8.79148 12.0257C8.76187 12.0968 8.74662 12.173 8.74662 12.25C8.74662 12.327 8.76187 12.4033 8.79148 12.4744C8.8211 12.5454 8.86449 12.61 8.91917 12.6642C8.9734 12.7189 9.03791 12.7623 9.109 12.7919C9.18008 12.8215 9.25633 12.8367 9.33333 12.8367C9.41034 12.8367 9.48659 12.8215 9.55767 12.7919C9.62876 12.7623 9.69327 12.7189 9.7475 12.6642L10.5 11.9059L11.2525 12.6642C11.3067 12.7189 11.3712 12.7623 11.4423 12.7919C11.5134 12.8215 11.5897 12.8367 11.6667 12.8367C11.7437 12.8367 11.8199 12.8215 11.891 12.7919C11.9621 12.7623 12.0266 12.7189 12.0808 12.6642C12.1355 12.61 12.1789 12.5454 12.2085 12.4744C12.2381 12.4033 12.2534 12.327 12.2534 12.25C12.2534 12.173 12.2381 12.0968 12.2085 12.0257C12.1789 11.9546 12.1355 11.8901 12.0808 11.8359L11.3225 11.0834ZM7 11.6667H3.5C3.34529 11.6667 3.19692 11.6052 3.08752 11.4958C2.97812 11.3864 2.91667 11.2381 2.91667 11.0834V2.91669C2.91667 2.76198 2.97812 2.6136 3.08752 2.50421C3.19692 2.39481 3.34529 2.33335 3.5 2.33335H6.41667V4.08335C6.41667 4.54748 6.60104 4.9926 6.92923 5.32079C7.25742 5.64898 7.70254 5.83335 8.16667 5.83335H9.91667V7.58335C9.91667 7.73806 9.97812 7.88644 10.0875 7.99583C10.1969 8.10523 10.3453 8.16669 10.5 8.16669C10.6547 8.16669 10.8031 8.10523 10.9125 7.99583C11.0219 7.88644 11.0833 7.73806 11.0833 7.58335V5.25002C11.0833 5.25002 11.0833 5.25002 11.0833 5.21502C11.0773 5.16143 11.0655 5.10864 11.0483 5.05752V5.00502C11.0203 4.94504 10.9829 4.88991 10.9375 4.84169L7.4375 1.34169C7.38928 1.29631 7.33415 1.2589 7.27417 1.23085C7.25487 1.22748 7.23513 1.22748 7.21583 1.23085C7.15911 1.20052 7.09815 1.17889 7.035 1.16669H3.5C3.03587 1.16669 2.59075 1.35106 2.26256 1.67925C1.93437 2.00744 1.75 2.45256 1.75 2.91669V11.0834C1.75 11.5475 1.93437 11.9926 2.26256 12.3208C2.59075 12.649 3.03587 12.8334 3.5 12.8334H7C7.15471 12.8334 7.30308 12.7719 7.41248 12.6625C7.52188 12.5531 7.58333 12.4047 7.58333 12.25C7.58333 12.0953 7.52188 11.9469 7.41248 11.8375C7.30308 11.7281 7.15471 11.6667 7 11.6667ZM7.58333 3.15585L9.09417 4.66669H8.16667C8.01196 4.66669 7.86358 4.60523 7.75419 4.49583C7.64479 4.38644 7.58333 4.23806 7.58333 4.08335V3.15585ZM4.66667 4.66669C4.51196 4.66669 4.36358 4.72815 4.25419 4.83754C4.14479 4.94694 4.08333 5.09531 4.08333 5.25002C4.08333 5.40473 4.14479 5.5531 4.25419 5.6625C4.36358 5.7719 4.51196 5.83335 4.66667 5.83335H5.25C5.40471 5.83335 5.55308 5.7719 5.66248 5.6625C5.77188 5.5531 5.83333 5.40473 5.83333 5.25002C5.83333 5.09531 5.77188 4.94694 5.66248 4.83754C5.55308 4.72815 5.40471 4.66669 5.25 4.66669H4.66667ZM7 9.33335H4.66667C4.51196 9.33335 4.36358 9.39481 4.25419 9.50421C4.14479 9.6136 4.08333 9.76198 4.08333 9.91669C4.08333 10.0714 4.14479 10.2198 4.25419 10.3292C4.36358 10.4386 4.51196 10.5 4.66667 10.5H7C7.15471 10.5 7.30308 10.4386 7.41248 10.3292C7.52188 10.2198 7.58333 10.0714 7.58333 9.91669C7.58333 9.76198 7.52188 9.6136 7.41248 9.50421C7.30308 9.39481 7.15471 9.33335 7 9.33335Z" fill="#F4600C"/>
</svg>
