<svg width="14" height="14" viewBox="0 0 14 14" fill="none" xmlns="http://www.w3.org/2000/svg">
<path d="M7 0.946045C3.61758 0.946045 0.875 3.68862 0.875 7.07104C0.875 10.4535 3.61758 13.196 7 13.196C10.3824 13.196 13.125 10.4535 13.125 7.07104C13.125 3.68862 10.3824 0.946045 7 0.946045ZM6.5625 4.11792C6.5625 4.05776 6.61172 4.00854 6.67188 4.00854H7.32812C7.38828 4.00854 7.4375 4.05776 7.4375 4.11792V7.83667C7.4375 7.89683 7.38828 7.94604 7.32812 7.94604H6.67188C6.61172 7.94604 6.5625 7.89683 6.5625 7.83667V4.11792ZM7 10.1335C6.82827 10.13 6.66476 10.0594 6.54455 9.93667C6.42434 9.81398 6.35701 9.64906 6.35701 9.47729C6.35701 9.30553 6.42434 9.14061 6.54455 9.01792C6.66476 8.89523 6.82827 8.82455 7 8.82104C7.17173 8.82455 7.33524 8.89523 7.45545 9.01792C7.57566 9.14061 7.64299 9.30553 7.64299 9.47729C7.64299 9.64906 7.57566 9.81398 7.45545 9.93667C7.33524 10.0594 7.17173 10.13 7 10.1335Z" fill="#FAAD14"/>
</svg>
